<svg xmlns="http://www.w3.org/2000/svg" xmlns:xlink="http://www.w3.org/1999/xlink" zoomAndPan="magnify" preserveAspectRatio="xMidYMid meet" version="1.0" viewBox="66.15 71.44 236.29 131.41"><defs><g/><clipPath id="eb60393eb0"><path d="M 138.355469 75.632812 L 198 75.632812 L 198 198.632812 L 138.355469 198.632812 Z M 138.355469 75.632812 " clip-rule="nonzero"/></clipPath><clipPath id="c0bc31f7bd"><path d="M 183 71.441406 L 250 71.441406 L 250 154.691406 L 183 154.691406 Z M 183 71.441406 " clip-rule="nonzero"/></clipPath><clipPath id="e428d08876"><path d="M 199 115 L 285 115 L 285 192 L 199 192 Z M 199 115 " clip-rule="nonzero"/></clipPath><clipPath id="90742b9a78"><path d="M 189.929688 133.980469 L 287.375 112.660156 L 302.445312 181.53125 L 205 202.851562 Z M 189.929688 133.980469 " clip-rule="nonzero"/></clipPath><clipPath id="4ba5cbcd17"><path d="M 189.929688 133.980469 L 287.375 112.660156 L 302.445312 181.53125 L 205 202.851562 Z M 189.929688 133.980469 " clip-rule="nonzero"/></clipPath></defs><g clip-path="url(#eb60393eb0)"><path fill="#f6660d" d="M 196.21875 198.984375 C 196.40625 198.984375 196.59375 198.960938 196.78125 198.914062 C 197.085938 198.796875 197.320312 198.5625 197.414062 198.277344 C 197.8125 197.410156 198.304688 194.546875 194.527344 186.613281 C 191.101562 179.40625 185.679688 160.675781 178.425781 130.910156 C 174.152344 113.375 171.875 109.597656 169.691406 105.9375 C 169.199219 105.089844 168.660156 104.222656 168.144531 103.210938 C 165.773438 98.660156 160.351562 99.597656 157.0625 100.703125 L 147.0625 75.632812 L 143.847656 78.753906 L 151.804688 97.484375 L 143.355469 84.386719 L 139.648438 85.445312 L 145.796875 94.949219 L 141.710938 89.527344 L 138.074219 92.367188 L 148.191406 103.777344 C 144.578125 104.832031 141.007812 106.007812 140.304688 108.117188 C 139.175781 111.546875 143.121094 120.628906 144.742188 123.847656 C 146.804688 127.953125 164.761719 159.382812 168.730469 164.757812 C 170.46875 167.128906 172.695312 170.746094 174.855469 174.21875 C 177.4375 178.398438 180.113281 182.714844 182.085938 185.179688 C 182.554688 185.746094 183.074219 186.425781 183.636719 187.128906 C 188.589844 193.398438 193.257812 198.984375 196.21875 198.984375 Z M 196.476562 198.019531 C 193.941406 198.65625 187.742188 190.792969 184.386719 186.542969 C 183.824219 185.816406 183.285156 185.15625 182.835938 184.570312 C 180.890625 182.152344 178.238281 177.859375 175.65625 173.703125 C 173.496094 170.207031 171.265625 166.589844 169.503906 164.195312 C 165.5625 158.820312 147.652344 127.507812 145.609375 123.398438 C 143.261719 118.753906 140.351562 111.007812 141.21875 108.375 C 141.804688 106.59375 145.726562 105.441406 149.175781 104.433594 L 149.882812 104.222656 L 139.460938 92.484375 L 141.546875 90.867188 L 151.3125 103.847656 L 152.488281 103.496094 L 141.101562 86.007812 L 142.933594 85.492188 L 153.964844 102.578125 L 154.789062 102.132812 L 144.953125 78.964844 L 146.6875 77.273438 L 156.5 101.875 L 156.921875 101.710938 C 163.777344 99.246094 166.359375 101.851562 167.296875 103.636719 C 167.839844 104.691406 168.378906 105.558594 168.894531 106.429688 C 171.054688 110.019531 173.285156 113.753906 177.507812 131.144531 C 184.785156 160.957031 190.230469 179.757812 193.683594 187.011719 C 197.390625 194.828125 196.851562 197.644531 196.476562 198.019531 Z M 196.476562 198.019531 " fill-opacity="1" fill-rule="nonzero"/></g><g clip-path="url(#c0bc31f7bd)"><path fill="#47a81d" d="M 209.390625 154.703125 C 198.546875 154.703125 191.386719 150.34375 188.066406 141.730469 C 179.996094 120.820312 181.839844 108.578125 194.214844 100.792969 C 198.027344 98.40625 202.828125 97.785156 208.535156 98.976562 C 213.101562 99.910156 217.25 101.804688 219.949219 103.230469 C 220.882812 103.726562 222.023438 103.621094 222.828125 102.921875 C 224.152344 101.804688 231.105469 96.304688 238.058594 98.457031 C 242.804688 99.9375 246.230469 104.527344 248.28125 112.078125 C 253.777344 132.417969 240.339844 143.652344 235.28125 147.878906 L 234.945312 148.164062 C 233.519531 149.382812 231.832031 150.265625 230.042969 150.8125 L 229.496094 150.964844 C 225.605469 152.238281 217.460938 154.703125 209.390625 154.703125 Z M 203.191406 99.445312 C 199.972656 99.445312 197.144531 100.195312 194.757812 101.703125 C 182.878906 109.148438 181.164062 121.003906 189.027344 141.367188 C 192.164062 149.539062 199.039062 153.691406 209.390625 153.691406 C 217.304688 153.691406 225.347656 151.253906 229.210938 150.058594 L 229.757812 149.902344 C 231.417969 149.410156 232.972656 148.554688 234.296875 147.4375 L 234.632812 147.152344 C 239.5625 143.027344 252.613281 132.105469 247.292969 112.414062 C 245.347656 105.203125 242.132812 100.871094 237.773438 99.496094 C 231.339844 97.5 224.773438 102.6875 223.503906 103.75 C 222.363281 104.710938 220.78125 104.890625 219.457031 104.191406 C 216.835938 102.789062 212.765625 100.949219 208.328125 100.039062 C 206.640625 99.652344 204.902344 99.46875 203.191406 99.445312 Z M 220.648438 97.578125 C 220.15625 97.578125 219.664062 97.394531 219.273438 97.058594 C 218.625 96.488281 218.339844 95.605469 218.574219 94.773438 C 219.429688 91.6875 222.179688 83.878906 228.925781 78.015625 C 231.132812 76.097656 236.96875 71.609375 243.246094 71.53125 C 243.945312 71.503906 244.621094 71.867188 245.011719 72.4375 C 245.453125 73.113281 245.53125 73.941406 245.21875 74.667969 C 243.894531 77.910156 239.847656 85.695312 235.722656 89.117188 C 231.132812 92.90625 222.519531 96.953125 221.558594 97.394531 C 221.273438 97.523438 220.960938 97.578125 220.648438 97.578125 Z M 243.296875 72.566406 C 237.359375 72.644531 231.753906 76.953125 229.625 78.792969 C 223.089844 84.5 220.441406 92.078125 219.585938 95.058594 C 219.457031 95.5 219.613281 95.992188 219.949219 96.28125 C 220.261719 96.566406 220.726562 96.617188 221.117188 96.433594 C 222.078125 95.992188 230.585938 92 235.074219 88.316406 C 239.070312 85.046875 242.988281 77.445312 244.285156 74.28125 C 244.464844 73.863281 244.414062 73.398438 244.179688 73.035156 C 243.972656 72.75 243.636719 72.566406 243.296875 72.566406 Z M 243.296875 72.566406 " fill-opacity="1" fill-rule="nonzero"/></g><g clip-path="url(#e428d08876)"><g clip-path="url(#90742b9a78)"><g clip-path="url(#4ba5cbcd17)"><path fill="#ffbd59" d="M 239.003906 190.640625 C 232.355469 192.09375 225.898438 191.996094 220.320312 190.226562 C 219.753906 190.058594 219.238281 189.878906 218.691406 189.679688 C 211.632812 187.308594 206.347656 184.703125 202.945312 181.976562 C 200.277344 179.832031 199.703125 178.292969 199.582031 177.867188 L 199.445312 177.367188 L 201.042969 172.675781 L 202.003906 172.464844 C 202.28125 172.40625 230.617188 166.46875 248.488281 148.789062 C 266.277344 131.207031 273.042969 116.855469 273.117188 116.707031 L 273.578125 115.679688 L 280.578125 115.949219 L 281.054688 116.558594 C 281.453125 117.054688 290.527344 128.867188 279.601562 155.671875 C 271.847656 174.820312 254.921875 187.15625 239.003906 190.640625 Z M 200.542969 177.417969 L 200.589844 177.621094 C 200.621094 177.773438 201.082031 179.15625 203.621094 181.195312 C 206.902344 183.839844 212.117188 186.378906 219.039062 188.730469 C 219.554688 188.910156 220.097656 189.082031 220.636719 189.253906 C 239.09375 195.175781 267.839844 181.921875 278.671875 155.292969 C 289.347656 129.042969 280.636719 117.683594 280.269531 117.207031 L 280.085938 116.980469 L 274.238281 116.753906 L 274.0625 117.160156 C 273.988281 117.308594 267.175781 131.804688 249.214844 149.558594 C 231.121094 167.445312 202.488281 173.472656 202.203125 173.507812 L 201.824219 173.589844 Z M 200.542969 177.417969 " fill-opacity="1" fill-rule="nonzero"/></g></g></g><g fill="#f6660d" fill-opacity="1"><g transform="translate(63.889282, 192.877039)"><g><path d="M 12.578125 0.515625 C 12.359375 0.515625 12.15625 0.40625 11.96875 0.1875 C 11.789062 -0.03125 11.671875 -0.28125 11.609375 -0.5625 L 11.46875 -1.4375 C 11.375 -1.800781 11.328125 -2.03125 11.328125 -2.125 C 7.878906 -14.488281 5.984375 -21.425781 5.640625 -22.9375 C 5.359375 -24.050781 4.726562 -27.132812 3.75 -32.1875 C 3.71875 -32 3.703125 -31.367188 3.703125 -30.296875 L 3.703125 -13.546875 L 3.796875 -6.9375 L 3.890625 -0.375 L 3.609375 0 L 2.546875 0 L 2.40625 -0.375 C 2.46875 -0.675781 2.5 -1.289062 2.5 -2.21875 L 2.453125 -10.265625 L 2.359375 -18.3125 L 2.359375 -28.765625 C 2.328125 -30.054688 2.3125 -31.503906 2.3125 -33.109375 C 2.3125 -33.296875 2.296875 -33.46875 2.265625 -33.625 L 2.265625 -34.09375 C 2.265625 -34.457031 2.363281 -34.707031 2.5625 -34.84375 C 2.769531 -34.988281 3.085938 -35.0625 3.515625 -35.0625 C 3.703125 -35.0625 3.910156 -34.96875 4.140625 -34.78125 C 4.367188 -34.59375 4.515625 -34.390625 4.578125 -34.171875 L 5.546875 -29.640625 C 5.984375 -27.484375 6.351562 -25.851562 6.65625 -24.75 C 7.300781 -22.1875 8.410156 -17.988281 9.984375 -12.15625 C 10.878906 -8.332031 11.679688 -5.40625 12.390625 -3.375 C 12.578125 -3.832031 12.671875 -4.570312 12.671875 -5.59375 C 12.671875 -8.582031 12.703125 -11.265625 12.765625 -13.640625 L 12.859375 -21.6875 C 12.859375 -23.019531 12.875 -24.222656 12.90625 -25.296875 L 12.90625 -28.859375 L 12.859375 -35.375 C 13.015625 -35.8125 13.335938 -36.03125 13.828125 -36.03125 C 14.078125 -36.03125 14.203125 -35.582031 14.203125 -34.6875 C 14.203125 -34.289062 14.1875 -33.96875 14.15625 -33.71875 C 14.15625 -33.46875 14.144531 -33.285156 14.125 -33.171875 C 14.113281 -33.066406 14.109375 -33 14.109375 -32.96875 L 14.109375 -30.015625 C 14.109375 -25.910156 14.09375 -22.257812 14.0625 -19.0625 C 14.03125 -15.820312 14.015625 -12.179688 14.015625 -8.140625 C 14.015625 -7.367188 13.96875 -6.148438 13.875 -4.484375 L 13.78125 -0.828125 C 13.78125 0.0664062 13.378906 0.515625 12.578125 0.515625 Z M 12.578125 0.515625 "/></g></g></g><g fill="#f6660d" fill-opacity="1"><g transform="translate(81.46339, 192.877039)"><g><path d="M 9.578125 0.875 C 8.867188 0.875 8.203125 0.71875 7.578125 0.40625 C 6.960938 0.101562 6.457031 -0.289062 6.0625 -0.78125 C 5.65625 -1.25 5.296875 -1.820312 4.984375 -2.5 C 4.679688 -3.175781 4.4375 -3.851562 4.25 -4.53125 C 3.945312 -5.582031 3.71875 -6.894531 3.5625 -8.46875 L 3.46875 -9.890625 C 3.46875 -10.203125 3.457031 -10.40625 3.4375 -10.5 C 3.425781 -10.59375 3.421875 -10.65625 3.421875 -10.6875 C 3.265625 -12.195312 3.070312 -15.523438 2.84375 -20.671875 C 2.613281 -25.816406 2.5 -29.828125 2.5 -32.703125 L 2.5 -33.390625 C 2.5 -34.191406 2.726562 -34.59375 3.1875 -34.59375 C 3.832031 -34.59375 4.15625 -34.222656 4.15625 -33.484375 L 4.15625 -33.15625 L 4.109375 -32.796875 C 4.109375 -29.210938 4.21875 -24.976562 4.4375 -20.09375 C 4.65625 -15.207031 4.875 -11.6875 5.09375 -9.53125 C 5.238281 -8.175781 5.5 -6.785156 5.875 -5.359375 C 6.125 -4.410156 6.394531 -3.609375 6.6875 -2.953125 C 6.976562 -2.304688 7.351562 -1.769531 7.8125 -1.34375 C 8.375 -0.84375 8.914062 -0.59375 9.4375 -0.59375 C 9.957031 -0.59375 10.425781 -0.71875 10.84375 -0.96875 C 11.257812 -1.21875 11.578125 -1.539062 11.796875 -1.9375 C 12.015625 -2.28125 12.191406 -2.71875 12.328125 -3.25 C 12.460938 -3.789062 12.546875 -4.3125 12.578125 -4.8125 C 12.609375 -5.113281 12.625 -5.625 12.625 -6.34375 L 12.625 -11.609375 C 12.625 -13.953125 12.5625 -16.832031 12.4375 -20.25 L 12.25 -26.171875 L 12.15625 -30.109375 C 12.070312 -31.835938 12.03125 -33.148438 12.03125 -34.046875 C 12.03125 -34.378906 12.117188 -34.640625 12.296875 -34.828125 C 12.484375 -35.015625 12.703125 -35.109375 12.953125 -35.109375 C 13.191406 -35.109375 13.394531 -35.015625 13.5625 -34.828125 C 13.738281 -34.640625 13.828125 -34.378906 13.828125 -34.046875 L 13.828125 -30.53125 C 13.828125 -28.988281 13.84375 -27.597656 13.875 -26.359375 L 13.875 -22.203125 C 13.875 -19.210938 13.90625 -16.59375 13.96875 -14.34375 C 14 -12.0625 14.015625 -9.5 14.015625 -6.65625 C 14.015625 -5.882812 13.984375 -5.207031 13.921875 -4.625 C 13.859375 -4.039062 13.734375 -3.425781 13.546875 -2.78125 C 13.367188 -2.039062 13.113281 -1.414062 12.78125 -0.90625 C 12.457031 -0.394531 12.035156 0.03125 11.515625 0.375 C 10.929688 0.707031 10.285156 0.875 9.578125 0.875 Z M 9.578125 0.875 "/></g></g></g><g fill="#f6660d" fill-opacity="1"><g transform="translate(98.667515, 192.877039)"><g><path d="M 7.625 0.28125 C 7.320312 0.28125 7.09375 0.164062 6.9375 -0.0625 C 6.78125 -0.300781 6.703125 -0.585938 6.703125 -0.921875 L 6.703125 -9.15625 L 6.609375 -16.5625 C 6.515625 -19.851562 6.46875 -22.316406 6.46875 -23.953125 L 6.515625 -25.296875 L 6.515625 -28.3125 C 6.515625 -31.632812 6.484375 -33.296875 6.421875 -33.296875 L 1.203125 -33.296875 C 0.953125 -33.296875 0.726562 -33.359375 0.53125 -33.484375 C 0.332031 -33.609375 0.234375 -33.78125 0.234375 -34 C 0.234375 -34.238281 0.28125 -34.40625 0.375 -34.5 C 0.46875 -34.59375 0.710938 -34.671875 1.109375 -34.734375 C 1.535156 -34.828125 2.148438 -34.875 2.953125 -34.875 L 7.578125 -34.875 L 12.671875 -34.921875 C 13.046875 -34.921875 13.300781 -34.859375 13.4375 -34.734375 C 13.570312 -34.609375 13.640625 -34.40625 13.640625 -34.125 C 13.640625 -33.664062 13.347656 -33.4375 12.765625 -33.4375 L 8.65625 -33.4375 L 8.234375 -33.390625 L 8.28125 -30.703125 L 8.28125 -4.484375 L 8.328125 -1.0625 L 8.328125 -0.96875 C 8.328125 -0.71875 8.3125 -0.507812 8.28125 -0.34375 C 8.25 -0.175781 8.1875 -0.046875 8.09375 0.046875 C 8 0.203125 7.84375 0.28125 7.625 0.28125 Z M 7.625 0.28125 "/></g></g></g><g fill="#f6660d" fill-opacity="1"><g transform="translate(113.420512, 192.877039)"><g><path d="M 11.28125 0.46875 C 10.664062 0.46875 10.28125 0.15625 10.125 -0.46875 L 9.578125 -2.5 C 8.710938 -5.363281 8.078125 -7.785156 7.671875 -9.765625 C 7.429688 -10.835938 7.125 -12.332031 6.75 -14.25 C 6.320312 -16.46875 5.921875 -18.269531 5.546875 -19.65625 L 5.09375 -19.375 L 4.484375 -19.09375 L 4.578125 -1.296875 L 4.578125 -0.59375 C 4.578125 0.0195312 4.300781 0.328125 3.75 0.328125 C 3.5 0.328125 3.296875 0.25 3.140625 0.09375 C 2.984375 -0.0625 2.90625 -0.25 2.90625 -0.46875 L 2.90625 -1.15625 L 3 -10.5 L 3.09375 -14.984375 C 3.21875 -20.378906 3.28125 -24.972656 3.28125 -28.765625 L 3.28125 -34.734375 C 3.28125 -35.015625 3.554688 -35.15625 4.109375 -35.15625 C 4.910156 -35.15625 5.660156 -34.9375 6.359375 -34.5 C 7.054688 -34.070312 7.601562 -33.488281 8 -32.75 C 8.832031 -31.238281 9.25 -29.585938 9.25 -27.796875 C 9.25 -26.378906 8.941406 -24.835938 8.328125 -23.171875 C 8.140625 -22.710938 7.90625 -22.179688 7.625 -21.578125 C 7.351562 -20.972656 7.109375 -20.5625 6.890625 -20.34375 C 7.535156 -17.96875 8.476562 -14.316406 9.71875 -9.390625 L 11.890625 -1.0625 C 11.921875 -0.96875 11.9375 -0.800781 11.9375 -0.5625 C 11.9375 -0.28125 11.878906 -0.0390625 11.765625 0.15625 C 11.660156 0.363281 11.5 0.46875 11.28125 0.46875 Z M 4.4375 -20.625 C 4.6875 -20.625 5.101562 -20.914062 5.6875 -21.5 C 6.269531 -22.09375 6.6875 -22.585938 6.9375 -22.984375 C 7.15625 -23.421875 7.335938 -24.066406 7.484375 -24.921875 C 7.640625 -25.785156 7.71875 -26.554688 7.71875 -27.234375 C 7.71875 -28.503906 7.503906 -29.800781 7.078125 -31.125 C 6.859375 -31.894531 6.53125 -32.519531 6.09375 -33 C 5.664062 -33.476562 5.191406 -33.71875 4.671875 -33.71875 L 4.578125 -33.71875 C 4.546875 -33.6875 4.5 -33.671875 4.4375 -33.671875 Z M 4.4375 -20.625 "/></g></g></g><g fill="#f6660d" fill-opacity="1"><g transform="translate(126.508593, 192.877039)"><g><path d="M 6.609375 -0.1875 C 5.867188 -0.21875 4.929688 -0.234375 3.796875 -0.234375 C 3.578125 -0.234375 3.378906 -0.304688 3.203125 -0.453125 C 3.035156 -0.609375 2.953125 -0.78125 2.953125 -0.96875 C 2.953125 -1.375 3.21875 -1.578125 3.75 -1.578125 L 5.546875 -1.578125 C 5.546875 -5.117188 5.4375 -9.585938 5.21875 -14.984375 C 5.101562 -19.296875 4.984375 -22.6875 4.859375 -25.15625 L 4.90625 -27.515625 L 4.90625 -30.578125 C 4.90625 -32.117188 4.875 -33.101562 4.8125 -33.53125 L 3.1875 -33.53125 C 2.882812 -33.53125 2.734375 -33.742188 2.734375 -34.171875 C 2.734375 -34.453125 2.851562 -34.671875 3.09375 -34.828125 C 3.3125 -34.921875 3.882812 -34.96875 4.8125 -34.96875 L 6.109375 -34.96875 C 6.566406 -34.9375 7.148438 -34.921875 7.859375 -34.921875 C 8.109375 -34.921875 8.304688 -34.863281 8.453125 -34.75 C 8.609375 -34.644531 8.6875 -34.484375 8.6875 -34.265625 C 8.6875 -34.085938 8.640625 -33.921875 8.546875 -33.765625 C 8.460938 -33.609375 8.328125 -33.53125 8.140625 -33.53125 C 7.921875 -33.53125 7.734375 -33.546875 7.578125 -33.578125 L 6.5625 -33.578125 C 6.257812 -33.578125 6.078125 -33.546875 6.015625 -33.484375 L 5.921875 -33.296875 C 5.921875 -30.890625 6.117188 -26.035156 6.515625 -18.734375 C 6.890625 -11.984375 7.078125 -7.125 7.078125 -4.15625 L 7.078125 -2.875 C 7.046875 -2.46875 7.03125 -2.050781 7.03125 -1.625 L 8.6875 -1.625 C 9.40625 -1.625 9.765625 -1.40625 9.765625 -0.96875 C 9.765625 -0.78125 9.691406 -0.601562 9.546875 -0.4375 C 9.410156 -0.269531 9.265625 -0.1875 9.109375 -0.1875 Z M 6.609375 -0.1875 "/></g></g></g><g fill="#47a81d" fill-opacity="1"><g transform="translate(138.114154, 192.325277)"><g><path d="M 7.6875 0.28125 C 7.375 0.28125 7.140625 0.164062 6.984375 -0.0625 C 6.835938 -0.300781 6.765625 -0.59375 6.765625 -0.9375 L 6.765625 -9.234375 L 6.671875 -16.6875 C 6.578125 -20.007812 6.53125 -22.492188 6.53125 -24.140625 L 6.578125 -25.5 L 6.578125 -28.53125 C 6.578125 -31.882812 6.546875 -33.5625 6.484375 -33.5625 L 1.21875 -33.5625 C 0.96875 -33.5625 0.738281 -33.625 0.53125 -33.75 C 0.332031 -33.875 0.234375 -34.046875 0.234375 -34.265625 C 0.234375 -34.503906 0.28125 -34.671875 0.375 -34.765625 C 0.46875 -34.859375 0.71875 -34.9375 1.125 -35 C 1.550781 -35.09375 2.171875 -35.140625 2.984375 -35.140625 L 7.640625 -35.140625 L 12.765625 -35.1875 C 13.140625 -35.1875 13.394531 -35.125 13.53125 -35 C 13.675781 -34.875 13.75 -34.671875 13.75 -34.390625 C 13.75 -33.929688 13.453125 -33.703125 12.859375 -33.703125 L 8.71875 -33.703125 L 8.296875 -33.65625 L 8.34375 -30.953125 L 8.34375 -4.515625 L 8.390625 -1.078125 L 8.390625 -0.984375 C 8.390625 -0.734375 8.375 -0.519531 8.34375 -0.34375 C 8.3125 -0.175781 8.25 -0.046875 8.15625 0.046875 C 8.0625 0.203125 7.90625 0.28125 7.6875 0.28125 Z M 7.6875 0.28125 "/></g></g></g><g fill="#47a81d" fill-opacity="1"><g transform="translate(152.982747, 192.325277)"><g><path d="M 6.671875 -0.1875 C 5.921875 -0.21875 4.972656 -0.234375 3.828125 -0.234375 C 3.609375 -0.234375 3.410156 -0.3125 3.234375 -0.46875 C 3.066406 -0.625 2.984375 -0.796875 2.984375 -0.984375 C 2.984375 -1.378906 3.25 -1.578125 3.78125 -1.578125 L 5.59375 -1.578125 C 5.59375 -5.148438 5.484375 -9.65625 5.265625 -15.09375 C 5.140625 -19.445312 5.015625 -22.867188 4.890625 -25.359375 L 4.9375 -27.734375 L 4.9375 -30.8125 C 4.9375 -32.363281 4.90625 -33.359375 4.84375 -33.796875 L 3.21875 -33.796875 C 2.90625 -33.796875 2.75 -34.007812 2.75 -34.4375 C 2.75 -34.71875 2.875 -34.9375 3.125 -35.09375 C 3.34375 -35.1875 3.914062 -35.234375 4.84375 -35.234375 L 6.15625 -35.234375 C 6.625 -35.203125 7.210938 -35.1875 7.921875 -35.1875 C 8.171875 -35.1875 8.375 -35.128906 8.53125 -35.015625 C 8.6875 -34.910156 8.765625 -34.75 8.765625 -34.53125 C 8.765625 -34.351562 8.71875 -34.1875 8.625 -34.03125 C 8.53125 -33.875 8.390625 -33.796875 8.203125 -33.796875 C 7.984375 -33.796875 7.796875 -33.8125 7.640625 -33.84375 L 6.625 -33.84375 C 6.3125 -33.84375 6.125 -33.8125 6.0625 -33.75 L 5.96875 -33.5625 C 5.96875 -31.132812 6.171875 -26.238281 6.578125 -18.875 C 6.941406 -12.070312 7.125 -7.175781 7.125 -4.1875 L 7.125 -2.890625 C 7.09375 -2.484375 7.078125 -2.0625 7.078125 -1.625 L 8.765625 -1.625 C 9.472656 -1.625 9.828125 -1.410156 9.828125 -0.984375 C 9.828125 -0.796875 9.757812 -0.613281 9.625 -0.4375 C 9.488281 -0.269531 9.34375 -0.1875 9.1875 -0.1875 Z M 6.671875 -0.1875 "/></g></g></g><g fill="#47a81d" fill-opacity="1"><g transform="translate(165.567452, 192.325277)"><g><path d="M 9.328125 0.984375 C 5.003906 0.984375 2.84375 -6.488281 2.84375 -21.4375 L 2.84375 -23.3125 C 2.84375 -25.914062 3 -28.179688 3.3125 -30.109375 C 3.5 -31.316406 3.753906 -32.3125 4.078125 -33.09375 C 4.398438 -33.875 4.84375 -34.492188 5.40625 -34.953125 C 5.9375 -35.484375 6.617188 -35.75 7.453125 -35.75 C 8.203125 -35.75 8.882812 -35.597656 9.5 -35.296875 C 10.125 -35.003906 10.640625 -34.628906 11.046875 -34.171875 C 11.390625 -33.734375 11.695312 -33.15625 11.96875 -32.4375 C 12.25 -31.726562 12.46875 -31.046875 12.625 -30.390625 L 13 -28.203125 C 13.75 -22.890625 14.125 -18.179688 14.125 -14.078125 L 14.125 -13.9375 C 14.125 -12.382812 14.09375 -10.953125 14.03125 -9.640625 C 13.96875 -8.085938 13.796875 -6.457031 13.515625 -4.75 C 13.390625 -3.914062 13.207031 -3.1875 12.96875 -2.5625 C 12.738281 -1.9375 12.441406 -1.316406 12.078125 -0.703125 C 11.421875 0.421875 10.503906 0.984375 9.328125 0.984375 Z M 9.421875 -0.328125 C 9.910156 -0.328125 10.359375 -0.613281 10.765625 -1.1875 C 11.171875 -1.757812 11.484375 -2.5625 11.703125 -3.59375 C 12.191406 -5.769531 12.5 -7.894531 12.625 -9.96875 C 12.6875 -11.644531 12.71875 -13.28125 12.71875 -14.875 L 12.71875 -15.0625 L 12.671875 -19.71875 C 12.609375 -21.394531 12.425781 -23.566406 12.125 -26.234375 C 11.875 -28.128906 11.359375 -30.070312 10.578125 -32.0625 C 10.265625 -32.84375 9.851562 -33.445312 9.34375 -33.875 C 8.832031 -34.3125 8.28125 -34.53125 7.6875 -34.53125 C 7.15625 -34.53125 6.6875 -34.28125 6.28125 -33.78125 C 5.882812 -33.289062 5.5625 -32.59375 5.3125 -31.6875 C 4.75 -29.613281 4.4375 -27.691406 4.375 -25.921875 C 4.28125 -24.390625 4.234375 -22.816406 4.234375 -21.203125 L 4.234375 -18.921875 C 4.234375 -16.835938 4.4375 -14.195312 4.84375 -11 C 5.09375 -8.976562 5.40625 -7.222656 5.78125 -5.734375 C 6.15625 -4.242188 6.648438 -2.984375 7.265625 -1.953125 C 7.890625 -0.867188 8.609375 -0.328125 9.421875 -0.328125 Z M 9.421875 -0.328125 "/></g></g></g><g fill="#47a81d" fill-opacity="1"><g transform="translate(182.71994, 192.325277)"><g><path d="M 12.671875 0.515625 C 12.453125 0.515625 12.25 0.40625 12.0625 0.1875 C 11.882812 -0.03125 11.765625 -0.28125 11.703125 -0.5625 L 11.5625 -1.4375 C 11.46875 -1.8125 11.421875 -2.046875 11.421875 -2.140625 C 7.941406 -14.597656 6.03125 -21.59375 5.6875 -23.125 C 5.40625 -24.238281 4.769531 -27.34375 3.78125 -32.4375 C 3.75 -32.25 3.734375 -31.613281 3.734375 -30.53125 L 3.734375 -13.65625 L 3.828125 -6.984375 L 3.921875 -0.375 L 3.640625 0 L 2.5625 0 L 2.421875 -0.375 C 2.484375 -0.6875 2.515625 -1.304688 2.515625 -2.234375 L 2.46875 -10.34375 L 2.375 -18.453125 L 2.375 -28.984375 C 2.34375 -30.296875 2.328125 -31.757812 2.328125 -33.375 C 2.328125 -33.5625 2.3125 -33.734375 2.28125 -33.890625 L 2.28125 -34.34375 C 2.28125 -34.71875 2.378906 -34.972656 2.578125 -35.109375 C 2.785156 -35.253906 3.109375 -35.328125 3.546875 -35.328125 C 3.734375 -35.328125 3.941406 -35.234375 4.171875 -35.046875 C 4.398438 -34.859375 4.546875 -34.65625 4.609375 -34.4375 L 5.59375 -29.875 C 6.03125 -27.695312 6.40625 -26.050781 6.71875 -24.9375 C 7.363281 -22.351562 8.476562 -18.128906 10.0625 -12.265625 C 10.96875 -8.410156 11.773438 -5.457031 12.484375 -3.40625 C 12.671875 -3.875 12.765625 -4.617188 12.765625 -5.640625 C 12.765625 -8.648438 12.796875 -11.351562 12.859375 -13.75 L 12.953125 -21.859375 C 12.953125 -23.191406 12.96875 -24.40625 13 -25.5 L 13 -29.078125 L 12.953125 -35.65625 C 13.109375 -36.09375 13.4375 -36.3125 13.9375 -36.3125 C 14.1875 -36.3125 14.3125 -35.859375 14.3125 -34.953125 C 14.3125 -34.546875 14.296875 -34.222656 14.265625 -33.984375 C 14.265625 -33.734375 14.253906 -33.550781 14.234375 -33.4375 C 14.222656 -33.332031 14.21875 -33.265625 14.21875 -33.234375 L 14.21875 -30.25 C 14.21875 -26.113281 14.203125 -22.429688 14.171875 -19.203125 C 14.140625 -15.941406 14.125 -12.273438 14.125 -8.203125 C 14.125 -7.421875 14.078125 -6.191406 13.984375 -4.515625 L 13.890625 -0.84375 C 13.890625 0.0625 13.484375 0.515625 12.671875 0.515625 Z M 12.671875 0.515625 "/></g></g></g><g fill="#47a81d" fill-opacity="1"><g transform="translate(200.431742, 192.325277)"><g><path d="M 6.671875 -0.1875 C 5.921875 -0.21875 4.972656 -0.234375 3.828125 -0.234375 C 3.609375 -0.234375 3.410156 -0.3125 3.234375 -0.46875 C 3.066406 -0.625 2.984375 -0.796875 2.984375 -0.984375 C 2.984375 -1.378906 3.25 -1.578125 3.78125 -1.578125 L 5.59375 -1.578125 C 5.59375 -5.148438 5.484375 -9.65625 5.265625 -15.09375 C 5.140625 -19.445312 5.015625 -22.867188 4.890625 -25.359375 L 4.9375 -27.734375 L 4.9375 -30.8125 C 4.9375 -32.363281 4.90625 -33.359375 4.84375 -33.796875 L 3.21875 -33.796875 C 2.90625 -33.796875 2.75 -34.007812 2.75 -34.4375 C 2.75 -34.71875 2.875 -34.9375 3.125 -35.09375 C 3.34375 -35.1875 3.914062 -35.234375 4.84375 -35.234375 L 6.15625 -35.234375 C 6.625 -35.203125 7.210938 -35.1875 7.921875 -35.1875 C 8.171875 -35.1875 8.375 -35.128906 8.53125 -35.015625 C 8.6875 -34.910156 8.765625 -34.75 8.765625 -34.53125 C 8.765625 -34.351562 8.71875 -34.1875 8.625 -34.03125 C 8.53125 -33.875 8.390625 -33.796875 8.203125 -33.796875 C 7.984375 -33.796875 7.796875 -33.8125 7.640625 -33.84375 L 6.625 -33.84375 C 6.3125 -33.84375 6.125 -33.8125 6.0625 -33.75 L 5.96875 -33.5625 C 5.96875 -31.132812 6.171875 -26.238281 6.578125 -18.875 C 6.941406 -12.070312 7.125 -7.175781 7.125 -4.1875 L 7.125 -2.890625 C 7.09375 -2.484375 7.078125 -2.0625 7.078125 -1.625 L 8.765625 -1.625 C 9.472656 -1.625 9.828125 -1.410156 9.828125 -0.984375 C 9.828125 -0.796875 9.757812 -0.613281 9.625 -0.4375 C 9.488281 -0.269531 9.34375 -0.1875 9.1875 -0.1875 Z M 6.671875 -0.1875 "/></g></g></g><g fill="#47a81d" fill-opacity="1"><g transform="translate(213.016447, 192.325277)"><g><path d="M 5.359375 1.03125 C 4.796875 1.03125 4.367188 1.003906 4.078125 0.953125 C 3.785156 0.910156 3.46875 0.8125 3.125 0.65625 C 2.75 0.46875 2.46875 0.203125 2.28125 -0.140625 C 2.28125 -0.515625 2.453125 -0.703125 2.796875 -0.703125 C 3.140625 -0.703125 3.578125 -0.59375 4.109375 -0.375 C 4.597656 -0.125 5.015625 0 5.359375 0 C 6.046875 0 6.675781 -0.273438 7.25 -0.828125 C 7.820312 -1.390625 8.265625 -2.125 8.578125 -3.03125 C 9.203125 -4.800781 9.515625 -6.367188 9.515625 -7.734375 C 9.515625 -9.253906 9.296875 -10.789062 8.859375 -12.34375 C 8.421875 -13.90625 7.84375 -15.367188 7.125 -16.734375 C 6.96875 -17.078125 6.707031 -17.585938 6.34375 -18.265625 C 5.5625 -19.816406 4.96875 -21.03125 4.5625 -21.90625 C 4.164062 -22.78125 3.8125 -23.742188 3.5 -24.796875 C 3.0625 -26.191406 2.84375 -27.695312 2.84375 -29.3125 C 2.84375 -30.34375 3.003906 -31.332031 3.328125 -32.28125 C 3.660156 -33.226562 4.179688 -34.039062 4.890625 -34.71875 C 5.671875 -35.4375 6.539062 -35.796875 7.5 -35.796875 C 7.875 -35.796875 8.320312 -35.644531 8.84375 -35.34375 C 9.375 -35.050781 9.640625 -34.765625 9.640625 -34.484375 C 9.640625 -34.242188 9.550781 -34.125 9.375 -34.125 C 9.1875 -34.125 8.9375 -34.195312 8.625 -34.34375 C 8.34375 -34.5 8.078125 -34.578125 7.828125 -34.578125 C 7.117188 -34.578125 6.488281 -34.3125 5.9375 -33.78125 C 5.394531 -33.257812 5 -32.609375 4.75 -31.828125 C 4.53125 -31.179688 4.421875 -30.46875 4.421875 -29.6875 C 4.421875 -28.476562 4.578125 -27.226562 4.890625 -25.9375 C 5.203125 -24.644531 5.625 -23.441406 6.15625 -22.328125 L 7.78125 -18.921875 L 8.25 -17.9375 C 8.90625 -16.601562 9.410156 -15.5 9.765625 -14.625 C 10.117188 -13.757812 10.421875 -12.785156 10.671875 -11.703125 C 11.015625 -10.242188 11.1875 -8.84375 11.1875 -7.5 C 11.1875 -5.695312 10.71875 -3.863281 9.78125 -2 C 9.320312 -1.101562 8.703125 -0.375 7.921875 0.1875 C 7.148438 0.75 6.296875 1.03125 5.359375 1.03125 Z M 5.359375 1.03125 "/></g></g></g><g fill="#47a81d" fill-opacity="1"><g transform="translate(227.139283, 192.325277)"><g><path d="M 7.6875 0.28125 C 7.375 0.28125 7.140625 0.164062 6.984375 -0.0625 C 6.835938 -0.300781 6.765625 -0.59375 6.765625 -0.9375 L 6.765625 -9.234375 L 6.671875 -16.6875 C 6.578125 -20.007812 6.53125 -22.492188 6.53125 -24.140625 L 6.578125 -25.5 L 6.578125 -28.53125 C 6.578125 -31.882812 6.546875 -33.5625 6.484375 -33.5625 L 1.21875 -33.5625 C 0.96875 -33.5625 0.738281 -33.625 0.53125 -33.75 C 0.332031 -33.875 0.234375 -34.046875 0.234375 -34.265625 C 0.234375 -34.503906 0.28125 -34.671875 0.375 -34.765625 C 0.46875 -34.859375 0.71875 -34.9375 1.125 -35 C 1.550781 -35.09375 2.171875 -35.140625 2.984375 -35.140625 L 7.640625 -35.140625 L 12.765625 -35.1875 C 13.140625 -35.1875 13.394531 -35.125 13.53125 -35 C 13.675781 -34.875 13.75 -34.671875 13.75 -34.390625 C 13.75 -33.929688 13.453125 -33.703125 12.859375 -33.703125 L 8.71875 -33.703125 L 8.296875 -33.65625 L 8.34375 -30.953125 L 8.34375 -4.515625 L 8.390625 -1.078125 L 8.390625 -0.984375 C 8.390625 -0.734375 8.375 -0.519531 8.34375 -0.34375 C 8.3125 -0.175781 8.25 -0.046875 8.15625 0.046875 C 8.0625 0.203125 7.90625 0.28125 7.6875 0.28125 Z M 7.6875 0.28125 "/></g></g></g></svg>